<?xml version="1.0" standalone="no"?><!DOCTYPE svg PUBLIC "-//W3C//DTD SVG 1.1//EN" "http://www.w3.org/Graphics/SVG/1.1/DTD/svg11.dtd"><svg t="1573456760286" class="icon" viewBox="0 0 1024 1024" version="1.1" xmlns="http://www.w3.org/2000/svg" p-id="1802" xmlns:xlink="http://www.w3.org/1999/xlink" width="200" height="200"><defs><style type="text/css"></style></defs><path d="M418.816 643.584H232.96c-16.896 0-31.232 13.824-31.232 31.232s13.824 31.232 31.232 31.232h185.856c16.896 0 31.232-13.824 31.232-31.232 0-17.408-13.824-31.232-31.232-31.232z m186.368-123.904H232.96c-16.896 0-31.232 13.824-31.232 31.232 0 16.896 13.824 31.232 31.232 31.232h372.224c16.896 1.024 31.744-12.288 32.256-29.696 1.024-16.896-12.288-31.744-29.696-32.256-1.024-0.512-1.536-0.512-2.56-0.512z" fill="" p-id="1803"></path><path d="M873.472 159.744H162.304c-65.536 0-118.272 52.736-118.272 118.272v474.112c0 65.536 52.736 118.272 118.272 118.272h710.656c65.536 0 118.272-52.736 118.272-118.272V278.016c0.512-65.024-52.224-118.272-117.76-118.272z m58.88 592.384c0 32.768-26.624 59.392-59.392 59.392H162.304c-32.768 0-59.392-26.624-59.392-59.392V396.8h829.44v355.328z m-829.44-414.72V278.016c0-32.768 26.624-59.392 59.392-59.392h710.656c32.768 0 59.392 26.624 59.392 59.392v59.392h-829.44z" fill="" p-id="1804"></path></svg>