<?xml version="1.0" standalone="no"?><!DOCTYPE svg PUBLIC "-//W3C//DTD SVG 1.1//EN" "http://www.w3.org/Graphics/SVG/1.1/DTD/svg11.dtd"><svg t="1571132477726" class="icon" viewBox="0 0 1024 1024" version="1.1" xmlns="http://www.w3.org/2000/svg" p-id="11833" xmlns:xlink="http://www.w3.org/1999/xlink" width="200" height="200"><defs><style type="text/css"></style></defs><path d="M931.84 974.933333h-853.333333a42.666667 42.666667 0 0 1-42.666667-42.666666v-810.666667a42.666667 42.666667 0 1 1 85.333333 0v768h810.666667a42.666667 42.666667 0 0 1 0 85.333333z" p-id="11834"></path><path d="M206.506667 846.933333a44.8 44.8 0 0 1-24.746667-8.106666 42.666667 42.666667 0 0 1-11.093333-59.733334l213.333333-298.666666a42.666667 42.666667 0 0 1 59.733333-11.093334l224.426667 149.76 231.68-270.08A42.666667 42.666667 0 0 1 964.266667 405.333333l-256 298.666667a42.666667 42.666667 0 0 1-55.893334 7.68l-221.44-148.053333-189.44 265.386666a42.666667 42.666667 0 0 1-34.986666 17.92z" p-id="11835"></path></svg>